<svg version="1.1" id="Слой_1" xmlns="http://www.w3.org/2000/svg" xmlns:xlink="http://www.w3.org/1999/xlink" x="0px" y="0px"
	 viewBox="-271 394.9 52 52" style="enable-background:new -271 394.9 52 52;" xml:space="preserve">
<path d="M-234.1,446.9h-21.8c-8.3,0-15.1-6.8-15.1-15.1V410c0-8.3,6.8-15.1,15.1-15.1h21.8c8.3,0,15.1,6.8,15.1,15.1v21.8
	C-219,440.1-225.8,446.9-234.1,446.9z M-255.9,398.9c-6.1,0-11.1,5-11.1,11.1v21.8c0,6.1,5,11.1,11.1,11.1h21.8
	c6.1,0,11.1-5,11.1-11.1V410c0-6.1-5-11.1-11.1-11.1H-255.9z"/>
<path d="M-245,434.9c-7.7,0-14-6.3-14-14c0-7.7,6.3-14,14-14s14,6.3,14,14C-231,428.6-237.3,434.9-245,434.9z M-245,410.9
	c-5.5,0-10,4.5-10,10s4.5,10,10,10c5.5,0,10-4.5,10-10S-239.5,410.9-245,410.9z"/>
<path d="M-230.2,402.9c-1.7,0-3.2,1.4-3.2,3.2c0,1.7,1.4,3.2,3.2,3.2c1.7,0,3.2-1.4,3.2-3.2C-227,404.3-228.4,402.9-230.2,402.9z"/>
</svg>
