<!DOCTYPE svg PUBLIC "-//W3C//DTD SVG 1.1//EN" "http://www.w3.org/Graphics/SVG/1.1/DTD/svg11.dtd">
<svg width="95pt" height="95pt" viewBox="0 0 95 95" version="1.1" xmlns="http://www.w3.org/2000/svg">
<path d=" M 44.87 0.00 L 49.92 0.00 C 61.56 0.61 72.90 5.61 81.11 13.90 C 89.35 22.06 94.32 33.31 95.00 44.87 L 95.00 49.92 C 94.38 61.81 89.16 73.38 80.57 81.62 C 72.54 89.50 61.64 94.23 50.43 95.00 L 45.08 95.00 C 33.19 94.38 21.62 89.16 13.37 80.57 C 5.44 72.46 0.68 61.45 0.00 50.15 L 0.00 45.09 C 0.61 33.20 5.83 21.63 14.42 13.38 C 22.53 5.44 33.55 0.67 44.87 0.00 M 44.42 7.55 C 28.83 8.58 14.57 19.68 9.62 34.48 C 5.71 45.63 7.13 58.50 13.43 68.51 C 19.58 78.57 30.36 85.66 42.07 87.19 C 53.59 88.85 65.70 85.08 74.28 77.24 C 83.02 69.45 88.05 57.70 87.53 45.99 C 87.18 35.06 82.03 24.42 73.75 17.29 C 65.80 10.29 54.98 6.70 44.42 7.55 Z" />
<path d=" M 37.38 29.29 C 38.87 28.61 40.30 29.59 41.49 30.39 C 48.67 35.23 55.92 39.98 63.10 44.84 C 65.17 45.88 65.20 49.08 63.13 50.14 C 55.48 55.26 47.84 60.42 40.13 65.44 C 38.34 66.79 35.40 65.18 35.61 62.94 C 35.50 52.94 35.59 42.94 35.56 32.94 C 35.44 31.49 35.91 29.86 37.38 29.29 Z" />
</svg>
