<svg version="1.1" xmlns="http://www.w3.org/2000/svg" xmlns:xlink="http://www.w3.org/1999/xlink" x="0px" y="0px"
	 viewBox="-515.5 793.7 74.8 49.1" style="enable-background:new -515.5 793.7 74.8 49.1;" xml:space="preserve">
<path style="fill:#B9D531;" d="M-501.5,793.8l23.2-0.1c-8.9,2.8-14.3,11.4-15.9,20.2c3.1,0.1,6.2,0,9.3,0.2c1.8-0.2,2.5,2.1,2.3,3.5
	c-0.8,4.8-2,9.6-2.9,14.4c-0.8,3.6-1.2,7.4-3.1,10.7h-26.2c-1.5-2.9-0.3-6,0.3-9c1.9-7.9,3.1-15.9,5.4-23.6
	C-507.8,804.3-504.8,798.9-501.5,793.8z"/>
<path style="fill:#B9D531;" d="M-462.8,793.8h22.1c-3.3,1.6-7.1,2.9-9.4,6c-3.2,4.1-5.6,9-6.4,14.2c3.3,0.1,6.7-0.1,10,0.3
	c1.2,0.6,2,2.1,1.7,3.5c-1.3,7.4-3.1,14.6-4.5,21.9c-0.1,1.3-0.9,2.3-1.8,3.1h-26c-1.5-2.8-0.2-6,0.3-8.9
	C-473.7,820.1-471.9,805.2-462.8,793.8z"/>
</svg>
