<svg version="1.1" xmlns="http://www.w3.org/2000/svg" xmlns:xlink="http://www.w3.org/1999/xlink" x="0px" y="0px"
	 viewBox="-256.9 396.9 75.3 49" style="enable-background:new -256.9 396.9 75.3 49;" xml:space="preserve">
<path style="fill:#b9d531;" d="M-242.5,396.9h2.7c-5.6,7.1-8.8,15.8-10.6,24.6c-1.5,7.5-3.3,14.8-4.6,22.3c8,0.2,16.1,0.1,24.1,0
	c2.1-8.1,3.9-16.4,5.1-24.7c-4,0.1-8,0.2-12-0.3c1.3-8.6,5.7-17.3,13.3-22h5.2c-8.9,2.8-14.3,11.4-15.9,20.2c3.1,0.1,6.2,0,9.3,0.2
	c1.8-0.2,2.5,2.1,2.3,3.5c-0.8,4.8-2,9.6-2.9,14.4c-0.8,3.6-1.2,7.4-3.1,10.7h-26.2c-1.5-2.9-0.3-6,0.3-9c1.9-7.9,3.1-15.9,5.4-23.6
	C-248.8,407.4-245.8,402-242.5,396.9z"/>
<path style="fill:#b9d531;" d="M-203.8,396.9h2.1c-4.3,6.6-8.1,13.7-9.9,21.4c-1.9,8.5-3.8,17-5.5,25.5c8,0.3,16.1,0,24.1,0.2
	c2.5-8.1,3.4-16.6,5.7-24.8c-4.2,0.1-8.4,0.2-12.7-0.3c1.2-8.6,5.4-16.8,12.4-22h5.9c-3.3,1.6-7.1,2.9-9.4,6
	c-3.2,4.1-5.6,9-6.4,14.2c3.3,0.1,6.7-0.1,10,0.3c1.2,0.6,2,2.1,1.7,3.5c-1.3,7.4-3.1,14.6-4.5,21.9c-0.1,1.3-0.9,2.3-1.8,3.1h-26
	c-1.5-2.8-0.2-6,0.3-8.9C-214.7,423.2-212.9,408.3-203.8,396.9z"/>
<path style="fill:#FFFFFF;" d="M-239.8,396.9h15.2c-7.6,4.7-12,13.3-13.3,22c4,0.5,8,0.4,12,0.3c-1.2,8.3-3,16.6-5.1,24.7
	c-8,0.1-16,0.1-24.1,0c1.3-7.5,3.2-14.9,4.6-22.3C-248.6,412.7-245.5,404-239.8,396.9z"/>
<path style="fill:#FFFFFF;" d="M-201.7,396.9h14.3c-7,5.2-11.3,13.4-12.4,22c4.2,0.5,8.4,0.3,12.7,0.3c-2.3,8.2-3.2,16.7-5.7,24.8
	c-8-0.2-16.1,0.1-24.1-0.2c1.7-8.5,3.5-17,5.5-25.5C-209.8,410.6-206,403.5-201.7,396.9z"/>
</svg>
