<?xml version="1.0" encoding="utf-8"?>
<!-- Generator: Adobe Illustrator 19.0.1, SVG Export Plug-In . SVG Version: 6.00 Build 0)  -->
<svg version="1.1" id="Слой_1" xmlns="http://www.w3.org/2000/svg" xmlns:xlink="http://www.w3.org/1999/xlink" x="0px" y="0px"
	 viewBox="-280 413.9 14 14" style="enable-background:new -280 413.9 14 14;" xml:space="preserve">
<path id="search-big" d="M-266.1,426.3l-3.6-3.6c-0.1-0.1-0.2-0.1-0.3-0.2c0.6-0.9,1-2,1-3.2c0-3-2.5-5.5-5.5-5.5s-5.5,2.5-5.5,5.5
	s2.5,5.5,5.5,5.5c1.2,0,2.3-0.4,3.2-1c0,0.1,0.1,0.2,0.2,0.3l3.6,3.6c0.3,0.3,0.9,0.2,1.2-0.2C-265.9,427.2-265.8,426.6-266.1,426.3
	z M-274.5,422.9c-1.9,0-3.5-1.6-3.5-3.5s1.6-3.5,3.5-3.5s3.5,1.6,3.5,3.5S-272.6,422.9-274.5,422.9z"/>
</svg>
