<svg version="1.1" id="Слой_1" xmlns="http://www.w3.org/2000/svg" xmlns:xlink="http://www.w3.org/1999/xlink" x="0px" y="0px"
	 viewBox="-268 400.9 42.1 39.1" style="enable-background:new -268 400.9 42.1 39.1;" xml:space="preserve">
<style type="text/css">
	.st0{fill:none;}
</style>
<path class="st0" d="M-231.9,417.9c0.7,0,1.4,0.1,2.1,0.3c0.5,0.2,1.1,0.4,1.5,0.8c0.5,0.4,1,0.9,1.3,1.4c0.2,0.4,0.4,0.8,0.6,1.2
	c0.2,0.7,0.3,1.4,0.4,2.2c0,3.4,0.1,6.8,0,10.3c0,0.7-0.1,1.5-0.4,2.2c-0.2,0.4-0.4,0.8-0.6,1.2c-0.4,0.5-0.8,1-1.4,1.4
	c-0.5,0.3-1,0.6-1.5,0.7c-0.6,0.2-1.3,0.3-2,0.3c-10.1,0.2-20.2,0.2-30.3,0c-0.6,0-1.2-0.1-1.8-0.3c-0.4-0.1-0.8-0.3-1.1-0.5
	c-0.3-0.2-0.6-0.4-0.8-0.6c-0.9-0.8-1.5-1.9-1.8-3c-0.2-0.6-0.2-1.2-0.3-1.9c-0.1-3.3-0.1-6.6,0-9.8c0-0.7,0.1-1.5,0.4-2.2
	c0.2-0.4,0.4-0.8,0.6-1.2c0.4-0.5,0.8-1,1.4-1.4c0.5-0.3,1-0.6,1.5-0.7c0.6-0.2,1.3-0.3,2-0.3C-252.1,417.7-242,417.8-231.9,417.9
	L-231.9,417.9z M-262.1,419.9c-0.4,0-0.8,0.1-1.2,0.2c-0.6,0.2-1.2,0.5-1.7,0.9c-0.2,0.2-0.3,0.3-0.4,0.5c-0.2,0.3-0.3,0.6-0.4,0.9
	c-0.1,0.5-0.2,1-0.2,1.4c0,3.2,0,6.5,0,9.7c0,0.4,0.1,0.9,0.2,1.3c0.2,0.8,0.6,1.6,1.2,2.1c0.2,0.1,0.3,0.3,0.5,0.4
	c0.2,0.1,0.5,0.3,0.7,0.3c0.4,0.1,0.8,0.2,1.3,0.2h0.1h2v-12h-2L-262.1,419.9C-262,419.9-262,419.9-262.1,419.9z M-254,437.9
	c0.6,0,2.3,0,1.8,0l-0.1,0c-0.2,0-0.4,0-0.6-0.1c-0.4-0.1-0.7-0.2-1-0.4l0,0C-254,437.5-254,437.7-254,437.9z M-252,437.9
	C-252,437.9-252,437.9-252,437.9z M-262,419.9L-262,419.9h10v3h4v-3h6v2.9c0.1,0,0.1,0,0.2,0c0.2,0,0.4,0,0.6,0.1
	c0.4,0.1,0.8,0.3,1.2,0.5c0.2,0.1,0.4,0.3,0.6,0.5l0,0l0.1-0.1l0.1-0.1c0.2-0.1,0.4-0.3,0.6-0.4c0.7-0.4,1.5-0.5,2.2-0.6
	c1-0.1,2.1,0.1,3,0.6c0.2,0.1,0.4,0.3,0.6,0.4c0.3,0.2,0.5,0.5,0.7,0.7c0.4,0.5,0.6,1.1,0.8,1.7c0.1,0.5,0.1,0.9,0.1,1.4
	c0,1.7,0,3.5,0,5.2h0c0,0.1,0,0.3,0,0.4c0,0.4-0.1,0.8-0.2,1.2c-0.1,0.5-0.4,1.1-0.7,1.5c-0.1,0.1-0.2,0.2-0.3,0.3
	c-0.1,0.1-0.2,0.2-0.4,0.4c-0.3,0.3-0.7,0.5-1.2,0.7c-0.6,0.2-1.2,0.3-1.8,0.4c-1,0.1-2.1-0.1-3-0.5c-0.3-0.2-0.6-0.4-0.9-0.6l0,0
	c-0.1,0.1-0.1,0.1-0.2,0.2c-0.1,0.1-0.1,0.1-0.2,0.2c-0.2,0.1-0.3,0.3-0.5,0.4c-0.3,0.2-0.7,0.4-1.1,0.5c-0.2,0.1-0.5,0.1-0.7,0.1h0
	c3.4,0,6.7,0.1,10.1,0c0.1,0,0.2,0,0.3,0c0.4,0,0.9-0.1,1.3-0.3c0.3-0.1,0.5-0.2,0.8-0.4c0.2-0.1,0.3-0.3,0.5-0.4
	c0.4-0.5,0.7-1,0.9-1.7c0.1-0.4,0.1-0.8,0.1-1.1c0-3.4,0.1-6.8,0-10.2c0-0.5-0.1-1-0.2-1.4c-0.1-0.3-0.2-0.6-0.4-0.8
	c-0.1-0.2-0.3-0.4-0.4-0.5c-0.4-0.4-1-0.8-1.6-0.9c-0.4-0.1-0.8-0.2-1.2-0.2C-241.9,419.7-252,419.9-262,419.9z M-254,424.9
	c0,3,0,6,0,9.1c0,0.1,0,0.1,0,0.2c0,0.1,0,0.3,0.1,0.4c0.1,0.2,0.2,0.3,0.3,0.5c0.1,0.1,0.1,0.1,0.2,0.2c0.1,0.1,0.3,0.3,0.4,0.4
	c0.2,0.2,0.5,0.3,0.8,0.3c0.1,0,0.3,0,0.4,0c0.2,0,0.3,0,0.5-0.1c0.2,0,0.3-0.1,0.4-0.2c0.2-0.1,0.3-0.2,0.5-0.3
	c0.2-0.1,0.3-0.3,0.4-0.4v1h2v-11h-2v8c0,0,0,0,0,0c0,0,0,0.1,0,0.1c0,0.1-0.1,0.2-0.1,0.3c0,0,0,0.1-0.1,0.1
	c-0.1,0.1-0.1,0.2-0.2,0.3c-0.1,0.1-0.2,0.1-0.4,0.1c-0.2,0-0.4,0-0.6-0.1c-0.2-0.1-0.4-0.3-0.4-0.5c0-0.1-0.1-0.2-0.1-0.3l0,0v-8
	C-252.7,424.9-253.3,424.9-254,424.9z M-246,421.9v14h2v-1c0.1,0.1,0.1,0.1,0.2,0.2c0.2,0.2,0.3,0.3,0.6,0.5c0.3,0.2,0.6,0.3,1,0.3
	c0.2,0,0.3,0,0.5,0c0.4-0.1,0.7-0.3,1-0.6c0.3-0.3,0.6-0.7,0.7-1.2c0.1-0.2,0.1-0.4,0.1-0.6c0-2.1,0-4.1,0-6.1c0-0.2,0-0.4-0.1-0.7
	c-0.1-0.4-0.2-0.7-0.4-1c-0.1-0.1-0.2-0.3-0.3-0.4c-0.1-0.1-0.3-0.2-0.4-0.3c-0.1-0.1-0.3-0.1-0.5-0.1c-0.2,0-0.4,0-0.6,0
	c-0.2,0-0.4,0.1-0.6,0.2c-0.4,0.2-0.8,0.5-1,0.9v-4C-244.7,421.9-245.3,421.9-246,421.9z M-260,421.9v2h2v12h2v-12h2v-2
	C-256,421.9-258,421.9-260,421.9z M-235.9,424.9c-0.4,0-0.8,0-1.2,0.2c-0.2,0.1-0.4,0.1-0.6,0.2c-0.1,0.1-0.2,0.1-0.3,0.2
	c-0.1,0.1-0.2,0.2-0.3,0.3c-0.3,0.3-0.5,0.7-0.6,1.2c-0.1,0.2-0.1,0.5-0.1,0.7c0,1.6,0,3.3,0,4.9c0,0.3,0,0.6,0.1,1
	c0.1,0.5,0.4,1,0.7,1.4c0.1,0.1,0.2,0.2,0.4,0.3c0.7,0.5,1.5,0.5,2.3,0.5c0.6-0.1,1.2-0.3,1.7-0.7c0.1-0.1,0.3-0.3,0.4-0.4
	c0.2-0.3,0.3-0.6,0.3-0.9c0.1-0.4,0.1-0.8,0.1-1.2c0-0.2,0-0.4,0-0.6h-2c0,0.2,0,0.5,0,0.7c0,0.1,0,0.2,0,0.3c0,0.1,0,0.3-0.1,0.4
	c0,0.1,0,0.2-0.1,0.3c0,0-0.1,0.1-0.1,0.1c-0.2,0.1-0.4,0.2-0.6,0.2c0,0-0.1,0-0.1,0c-0.2,0-0.5,0-0.7-0.2c-0.1-0.1-0.2-0.3-0.2-0.4
	c-0.1-0.3-0.1-0.5-0.1-0.8v-1.5h4c0-1.1,0-2.2,0-3.3c0-0.4,0-0.8-0.2-1.1c-0.2-0.6-0.7-1.2-1.3-1.4c-0.4-0.1-0.8-0.2-1.2-0.2
	C-235.8,424.9-235.8,424.9-235.9,424.9z"/>
<path d="M-232,417.9c3.6,0,6,2.4,6,6v10c0,3.6-2.4,6-6,6h-30c-3.6,0-6-2.9-6-6.5v-9.5c0-3.6,2.4-6,6-6H-232z M-252,424.9h-2v9
	c0,0.6,0.3,0.9,0.5,1.2c0.3,0.3,0.8,0.8,1.3,0.8c0.4,0,0.8,0,1.2-0.2c0.4-0.2,0.6-0.3,1-0.8v1h2v-11h-2v8c-0.2,0.2-0.2,1-1,1
	c-0.7,0-1-0.8-1-1V424.9z M-244,421.9h-2v14h2v-1c0.4,0.5,0.9,1,2,1c0.6,0,1.1-0.5,1.4-0.9c0.3-0.4,0.6-0.9,0.6-1.6v-6
	c0-0.9-0.3-1.4-0.6-1.9c-0.3-0.4-0.9-0.7-1.5-0.7c-0.3,0-0.6,0.1-1,0.3c-0.3,0.2-0.7,0.4-0.9,0.8C-244,425.9-244,421.9-244,421.9z
	 M-254,421.9h-6v2h2v12h2v-12h2V421.9z M-235,431.9v0.5c0,0.6-0.1,1.1-0.2,1.2c-0.1,0.2-0.4,0.3-0.8,0.3c-0.4,0-0.6-0.1-0.8-0.3
	c-0.1-0.2-0.2-0.6-0.2-1.1v-1.5h4v-3.1c0-1-0.2-1.6-0.7-2.1c-0.5-0.5-1.2-0.7-2.1-0.7c-0.9,0-1.8,0.2-2.3,0.7
	c-0.6,0.6-0.9,1.3-0.9,2.2v4.7c0,1,0.3,1.8,0.8,2.4c0.5,0.6,1.3,0.9,2.2,0.9c1,0,1.8-0.3,2.3-0.8c0.5-0.5,0.6-1.3,0.6-2.4v-0.6
	C-233,431.9-235,431.9-235,431.9z M-242,427.9c0-1-0.4-1.5-1-1.5s-1,0.5-1,1v6c0,0.3,0.4,0.5,1,0.5s1-0.4,1-1V427.9z M-235,428.9h-2
	v-1c0-0.5,0.4-1,1-1c0.6,0,1,0.4,1,1V428.9z"/>
<path d="M-253,400.9l-2,6l-2-6h-2l3,9v6h2v-6l3-9H-253z M-247,412.9c0,1-0.7,1-1,1c-0.3,0-1,0-1-1v-5c0-0.8,0.4-1,1-1c0.3,0,1,0,1,1
	V412.9z M-245.8,405.6c-0.6-0.6-1.3-0.7-2.2-0.7c-1.1,0-1.6,0.2-2.2,0.7c-0.6,0.5-0.8,0.9-0.8,2.3v5c0,1,0.2,1.7,0.8,2.2
	c0.6,0.6,1.2,0.8,2.2,0.8c1.1,0,1.6-0.2,2.2-0.8c0.6-0.6,0.8-1.2,0.8-2.2v-5C-245,407-245.2,406.2-245.8,405.6z M-239,404.9v8
	c0,0.7-0.8,1-1,1c-0.2,0-1,0-1-1v-8h-2v9c0,1,1,2,2,2c1,0,1.6-0.5,2-1v1h2v-11H-239z"/>
</svg>
