<?xml version="1.0" standalone="no"?>
<!DOCTYPE svg PUBLIC "-//W3C//DTD SVG 20010904//EN"
 "http://www.w3.org/TR/2001/REC-SVG-20010904/DTD/svg10.dtd">
<svg version="1.0" xmlns="http://www.w3.org/2000/svg"
 width="352.000000pt" height="352.000000pt" viewBox="0 0 352.000000 352.000000"
 preserveAspectRatio="xMidYMid meet">
<metadata>
Created by potrace 1.11, written by Peter Selinger 2001-2013
</metadata>
<g transform="translate(0.000000,352.000000) scale(0.100000,-0.100000)"
fill="#000000" stroke="none">
<path d="M1590 3508 c-106 -12 -160 -21 -235 -39 -22 -5 -50 -12 -62 -14 -57
-13 -208 -72 -308 -120 -184 -89 -319 -187 -475 -344 -252 -253 -419 -574
-481 -926 -24 -135 -36 -341 -20 -330 6 3 11 11 11 16 0 18 79 146 140 228
221 293 517 474 900 550 496 98 865 -4 1157 -319 156 -167 301 -506 250 -583
-30 -46 -48 -52 -697 -228 -124 -33 -232 -62 -241 -64 -8 -2 -73 -19 -145 -39
-134 -37 -317 -85 -345 -91 -8 -2 -40 -10 -70 -19 -146 -44 -212 -37 -254 28
-21 32 -22 89 -1 121 35 53 41 55 546 190 577 154 594 159 619 183 21 21 23
29 17 75 -12 92 -81 219 -166 305 -95 97 -209 160 -334 187 -68 15 -239 12
-311 -5 -27 -6 -61 -14 -75 -16 -91 -17 -257 -127 -345 -229 -162 -187 -231
-348 -240 -555 -10 -242 54 -460 181 -613 135 -163 404 -306 628 -335 312 -40
584 64 888 340 107 97 131 112 181 110 34 -1 48 -8 75 -37 38 -42 40 -63 7
-133 -26 -55 -153 -192 -265 -284 -198 -163 -430 -276 -690 -338 -102 -23
-142 -28 -280 -30 -104 -1 -105 -2 -65 -16 22 -8 49 -18 60 -23 53 -24 134
-48 225 -67 14 -3 43 -9 66 -14 107 -24 389 -34 529 -18 89 10 248 46 350 80
85 28 334 142 345 158 3 4 16 13 30 20 32 17 155 106 200 145 202 176 341 358
454 595 285 599 203 1312 -209 1835 -332 421 -821 662 -1357 669 -68 0 -152
-2 -188 -6z"/>
</g>
</svg>
